# xmcd CD database file
#
# Track frame offsets:
#	150
#	13969
#	34351
#	55165
#	72159
#	90114
#	107584
#	120223
#	138485
#	153705
#	167857
#	184282
#	205498
#	218183
#
# Disc length: 3149 seconds
#
# Revision: 0
# Processed by: cddbd v1.5.1PL2 Copyright (c) Steve Scherf et al.
# Submitted via: CDex 1.51
#
DISCID=c70c4b0e
DTITLE=Various Artist - 3 SuperstarsCountry Hits
DYEAR=1900
DGENRE=Country
TTITLE0=Take Me Home Country Road - John Denver
TTITLE1=Back Home Again - John Denver
TTITLE2=How Can I tell Her - Lobo
TTITLE3=I'd Love You to Want Me - Lobo
TTITLE4=American Pie - Don McLean
TTITLE5=Vincent - Don McLean
TTITLE6=Follow Me - John Denver
TTITLE7=Sunshine on my Shoulder - John Denver
TTITLE8=Stoney - Lobo
TTITLE9=Me and You and a Dog named Boo - Lobo
TTITLE10=Fly Away - John Denver
TTITLE11=Rocky Mountin High - John Denver
TTITLE12=Annie's Song - John Denver
TTITLE13=leaving on a Jet Plane - John Denver
EXTD=
EXTT0=
EXTT1=
EXTT2=
EXTT3=
EXTT4=
EXTT5=
EXTT6=
EXTT7=
EXTT8=
EXTT9=
EXTT10=
EXTT11=
EXTT12=
EXTT13=
PLAYORDER=
